<?xml version="1.0" encoding="UTF-8" standalone="no"?>
<!-- Created with Inkscape (http://www.inkscape.org/) -->

<svg
   xmlns:dc="http://purl.org/dc/elements/1.1/"
   xmlns:cc="http://creativecommons.org/ns#"
   xmlns:rdf="http://www.w3.org/1999/02/22-rdf-syntax-ns#"
   xmlns:svg="http://www.w3.org/2000/svg"
   xmlns="http://www.w3.org/2000/svg"
   xmlns:sodipodi="http://sodipodi.sourceforge.net/DTD/sodipodi-0.dtd"
   xmlns:inkscape="http://www.inkscape.org/namespaces/inkscape"
   width="81.208801mm"
   height="84.364067mm"
   viewBox="0 0 81.208801 84.364067"
   version="1.1"
   id="svg1701"
   inkscape:version="0.92.4 (5da689c313, 2019-01-14)"
   sodipodi:docname="cog.svg">
  <defs
     id="defs1695" />
  <sodipodi:namedview
     id="base"
     pagecolor="#ffffff"
     bordercolor="#666666"
     borderopacity="1.0"
     inkscape:pageopacity="0.0"
     inkscape:pageshadow="2"
     inkscape:zoom="0.35"
     inkscape:cx="-295.10597"
     inkscape:cy="190.85673"
     inkscape:document-units="mm"
     inkscape:current-layer="layer1"
     showgrid="false"
     fit-margin-top="0"
     fit-margin-left="0"
     fit-margin-right="0"
     fit-margin-bottom="0"
     inkscape:window-width="1920"
     inkscape:window-height="1017"
     inkscape:window-x="-8"
     inkscape:window-y="-8"
     inkscape:window-maximized="1" />
  <metadata
     id="metadata1698">
    <rdf:RDF>
      <cc:Work
         rdf:about="">
        <dc:format>image/svg+xml</dc:format>
        <dc:type
           rdf:resource="http://purl.org/dc/dcmitype/StillImage" />
        <dc:title></dc:title>
      </cc:Work>
    </rdf:RDF>
  </metadata>
  <g
     inkscape:label="Layer 1"
     inkscape:groupmode="layer"
     id="layer1"
     transform="translate(13.390116,-114.96678)">
    <path
       inkscape:connector-curvature="0"
       d="m 65.772818,164.50968 -5.546619,-3.20227 a 33.195956,33.195956 0 0 0 0,-8.31718 l 5.546619,-3.20227 c 1.62878,-0.94025 2.414421,-2.87485 1.878801,-4.67762 -1.907371,-6.4207 -5.302541,-12.20015 -9.786091,-16.94003 -1.298461,-1.37262 -3.370652,-1.673 -5.006912,-0.72832 l -5.538448,3.19733 a 33.018553,33.018553 0 0 0 -7.2014,-4.16378 v -6.39773 c 0,-1.89309 -1.30152,-3.53853 -3.14393,-3.97447 -6.40283,-1.51533 -13.116931,-1.5155 -19.521131,0 -1.84223,0.43594 -3.143919,2.08121 -3.143919,3.97447 v 6.39773 a 33.01447,33.01447 0 0 0 -7.2014106,4.16378 l -5.53844,-3.19733 c -1.63642998,-0.94468 -3.70862,-0.6443 -5.0069101,0.72832 -4.48355,4.73988 -7.8787003,10.5195 -9.7860803,16.94003 -0.53561,1.80277 0.25003,3.7372 1.8788,4.67762 l 5.5466101,3.20227 a 33.195956,33.195956 0 0 0 0,8.31718 l -5.5466101,3.20227 c -1.62877,0.94026 -2.41441,2.87485 -1.8788,4.67763 1.90738,6.42052 5.3025303,12.20015 9.7860803,16.94002 1.2984601,1.37262 3.37066012,1.673 5.0069101,0.7285 l 5.53844,-3.19734 a 33.010898,33.010898 0 0 0 7.2014106,4.16361 v 6.39773 c 0,1.89308 1.30152,3.53852 3.143919,3.97446 6.40301,1.51532 13.116941,1.51549 19.521131,0 1.84224,-0.43594 3.14393,-2.08121 3.14393,-3.97446 v -6.39773 a 33.020765,33.020765 0 0 0 7.2014,-4.16361 l 5.538448,3.19734 c 1.63626,0.94467 3.708451,0.64429 5.006912,-0.7285 4.48355,-4.73987 7.87872,-10.5195 9.786091,-16.94002 0.53562,-1.80278 -0.250021,-3.7372 -1.878801,-4.67763 z m -11.137281,17.08733 -7.876659,-4.54819 c -4.59037,3.92413 -6.21828,4.9115 -12.08296,6.9837 v 9.09619 a 36.934002,36.934002 0 0 1 -14.923281,0 v -9.09619 c -5.718569,-2.02049 -7.37421,-2.9587 -12.0829596,-6.9837 l -7.87665998,4.54819 C -3.5594327,177.83974 -6.1072027,173.4346 -7.6788327,168.67738 l 7.88007012,-4.54818 c -1.11154,-6.02405 -1.11205,-7.93364 0,-13.96075 l -7.88007012,-4.54818 c 1.57163,-4.75723 4.1195598,-9.16254 7.47185012,-12.92151 l 7.87665998,4.55159 c 4.6565296,-3.98587 6.3040106,-4.94364 12.0829596,-6.98539 v -9.09603 a 36.873622,36.873622 0 0 1 14.923281,0 v 9.0962 c 5.779288,2.04192 7.426939,2.99986 12.08296,6.98539 l 7.876659,-4.55159 c 3.352281,3.7588 5.900221,8.16411 7.471841,12.92151 l -7.880051,4.54818 c 1.1117,6.02558 1.112031,7.93364 0,13.96074 l 7.880051,4.54819 c -1.57162,4.75705 -4.11938,9.16236 -7.471841,12.91946 z M 27.214276,140.82035 c -9.00367,0 -16.328549,7.32489 -16.328549,16.32856 0,9.00367 7.324879,16.32855 16.328549,16.32855 9.003671,0 16.328562,-7.32488 16.328562,-16.32855 0,-9.00367 -7.324891,-16.32856 -16.328562,-16.32856 z m 0,27.21426 c -6.002448,0 -10.885709,-4.88326 -10.885709,-10.8857 0,-6.00245 4.883261,-10.88571 10.885709,-10.88571 6.002441,0 10.885702,4.88326 10.885702,10.88571 0,6.00244 -4.883261,10.8857 -10.885702,10.8857 z"
       id="path2-2"
       style="stroke-width:0.26458332;fill:#4d4d4d" />
  </g>
</svg>
