<?xml version="1.0" encoding="UTF-8" standalone="no"?>
<!-- Created with Inkscape (http://www.inkscape.org/) -->

<svg
   xmlns:dc="http://purl.org/dc/elements/1.1/"
   xmlns:cc="http://creativecommons.org/ns#"
   xmlns:rdf="http://www.w3.org/1999/02/22-rdf-syntax-ns#"
   xmlns:svg="http://www.w3.org/2000/svg"
   xmlns="http://www.w3.org/2000/svg"
   xmlns:sodipodi="http://sodipodi.sourceforge.net/DTD/sodipodi-0.dtd"
   xmlns:inkscape="http://www.inkscape.org/namespaces/inkscape"
   width="84.664017mm"
   height="84.664032mm"
   viewBox="0 0 84.664017 84.664032"
   version="1.1"
   id="svg841"
   inkscape:version="0.92.4 (5da689c313, 2019-01-14)"
   sodipodi:docname="exit.svg">
  <defs
     id="defs835" />
  <sodipodi:namedview
     id="base"
     pagecolor="#ffffff"
     bordercolor="#666666"
     borderopacity="1.0"
     inkscape:pageopacity="0.0"
     inkscape:pageshadow="2"
     inkscape:zoom="0.35"
     inkscape:cx="-708.57643"
     inkscape:cy="251.42359"
     inkscape:document-units="mm"
     inkscape:current-layer="layer1"
     showgrid="false"
     fit-margin-top="0"
     fit-margin-left="0"
     fit-margin-right="0"
     fit-margin-bottom="0"
     inkscape:window-width="1920"
     inkscape:window-height="1017"
     inkscape:window-x="-8"
     inkscape:window-y="-8"
     inkscape:window-maximized="1" />
  <metadata
     id="metadata838">
    <rdf:RDF>
      <cc:Work
         rdf:about="">
        <dc:format>image/svg+xml</dc:format>
        <dc:type
           rdf:resource="http://purl.org/dc/dcmitype/StillImage" />
        <dc:title></dc:title>
      </cc:Work>
    </rdf:RDF>
  </metadata>
  <g
     inkscape:label="Layer 1"
     inkscape:groupmode="layer"
     id="layer1"
     transform="translate(-96.007275,-130.69179)">
    <path
       inkscape:connector-curvature="0"
       d="m 147.32057,173.02513 27.13566,-27.13566 5.59594,-5.59594 c 0.8255,-0.8255 0.8255,-2.16694 0,-2.99244 l -5.98752,-5.98752 c -0.8255,-0.8255 -2.16694,-0.8255 -2.99244,0 l -32.7316,32.7316 -32.73161,-32.73425 c -0.8255,-0.8255 -2.16693,-0.8255 -2.99243,0 l -5.99017,5.98752 c -0.8255,0.8255 -0.8255,2.16694 0,2.99244 l 32.73425,32.73425 -32.73425,32.73161 c -0.8255,0.8255 -0.8255,2.16693 0,2.99243 l 5.98752,5.98753 c 0.8255,0.8255 2.16694,0.8255 2.99244,0 l 32.73425,-32.73161 27.13567,27.13567 5.59593,5.59594 c 0.8255,0.8255 2.16694,0.8255 2.99244,0 l 5.98752,-5.98753 c 0.8255,-0.8255 0.8255,-2.16693 0,-2.99243 z"
       id="path2"
       style="stroke-width:0.26458332;fill:#ffffff" />
  </g>
</svg>
